<svg xmlns="http://www.w3.org/2000/svg" height="24" viewBox="0 -960 960 960" width="24"><path d="M180.001-204.616v-59.998h72.308v-298.463q0-80.692 49.807-142.692 49.808-62 127.885-79.307v-24.923q0-20.833 14.57-35.416 14.57-14.584 35.384-14.584t35.429 14.584q14.615 14.583 14.615 35.416v24.923q78.077 17.307 127.885 79.307 49.807 62 49.807 142.692v298.463h72.308v59.998H180.001ZM480-497.692Zm-.068 405.383q-29.855 0-51.047-21.24-21.192-21.24-21.192-51.067h144.614q0 29.923-21.26 51.115-21.26 21.192-51.115 21.192ZM312.307-264.614h335.386v-298.463q0-69.462-49.116-118.577Q549.462-730.77 480-730.77q-69.462 0-118.577 49.116-49.116 49.115-49.116 118.577v298.463Z"/></svg>